<?xml version="1.0" encoding="UTF-8"?>
<svg width="475px" height="474px" viewBox="0 0 475 474" version="1.1" xmlns="http://www.w3.org/2000/svg" xmlns:xlink="http://www.w3.org/1999/xlink">
    <title>Money Streaming Icon</title>
    <g id="Money-Stream" stroke="none" stroke-width="1" fill="none" fill-rule="evenodd">
        <g id="Artboard" transform="translate(-141.000000, -120.000000)">
            <g id="Money-Streaming-Icon" transform="translate(141.000000, 120.000000)">
                <rect id="Rectangle" fill="#000000" x="0" y="0" width="475" height="474" rx="96"></rect>
                <g id="5-2" transform="translate(362.000000, 156.000000)" fill="#E02020">
                    <circle id="Oval-2" cx="28" cy="133" r="28"></circle>
                    <path d="M48,47 C38,59 34,68 34,80 C34,92.0372288 38,102 48,114 L8,114 C19,102 23,92 23,80 C23,68 19,59 8,47 L48,47 Z" id="Path"></path>
                    <circle id="Oval-1" cx="28" cy="28" r="28"></circle>
                </g>
                <g id="4-3" transform="translate(286.000000, 105.000000)" fill="#E02020">
                    <circle id="Oval-3" cx="28" cy="239" r="28"></circle>
                    <path d="M48,153 C38,165 34,174 34,186 C34,198.037229 38,208 48,220 L8,220 C19,208 23,198 23,186 C23,174 19,165 8,153 L48,153 Z" id="Path"></path>
                    <circle id="Oval-2" cx="28" cy="134" r="28"></circle>
                    <path d="M48,47 C38,59 34,68 34,80 C34,92.0372288 38,102 48,114 L8,114 C19,102 23,92 23,80 C23,68 19,59 8,47 L48,47 Z" id="Path"></path>
                    <circle id="Oval-1" cx="28" cy="28" r="28"></circle>
                </g>
                <g id="3-4" transform="translate(210.000000, 51.000000)">
                    <g id="Group" transform="translate(8.000000, 153.000000)"></g>
                    <circle id="Oval-4" fill="#E02020" cx="28" cy="345" r="28"></circle>
                    <path d="M48,259 C38,271 34,280 34,292 C34,304.037229 38,314 48,326 L8,326 C19,314 23,304 23,292 C23,280 19,271 8,259 L48,259 Z" id="Path" fill="#E02020"></path>
                    <circle id="Oval-3" fill="#E02020" cx="28" cy="239" r="28"></circle>
                    <path d="M48,153 C38,165 34,174 34,186 C34,198.037229 38,208 48,220 L8,220 C19,208 23,198 23,186 C23,174 19,165 8,153 L48,153 Z" id="Path" fill="#E02020"></path>
                    <circle id="Oval-2" fill="#E02020" cx="28" cy="134" r="28"></circle>
                    <path d="M48,47 C38,59 34,68 34,80 C34,92.0372288 38,102 48,114 L8,114 C19,102 23,92 23,80 C23,68 19,59 8,47 L48,47 Z" id="Path" fill="#E02020"></path>
                    <circle id="Oval-1" fill="#E02020" cx="28" cy="28" r="28"></circle>
                </g>
                <g id="2-3" transform="translate(134.000000, 105.000000)" fill="#E02020">
                    <circle id="Oval-3" cx="28" cy="239" r="28"></circle>
                    <path d="M48,153 C38,165 34,174 34,186 C34,198.037229 38,208 48,220 L8,220 C19,208 23,198 23,186 C23,174 19,165 8,153 L48,153 Z" id="Path"></path>
                    <circle id="Oval-2" cx="28" cy="134" r="28"></circle>
                    <path d="M48,47 C38,59 34,68 34,80 C34,92.0372288 38,102 48,114 L8,114 C19,102 23,92 23,80 C23,68 19,59 8,47 L48,47 Z" id="Path"></path>
                    <circle id="Oval-1" cx="28" cy="28" r="28"></circle>
                </g>
                <g id="1-2" transform="translate(58.000000, 157.000000)" fill="#E02020">
                    <circle id="Oval-2" cx="28" cy="133" r="28"></circle>
                    <path d="M48,47 C38,59 34,68 34,80 C34,92.0372288 38,102 48,114 L8,114 C19,102 23,92 23,80 C23,68 19,59 8,47 L48,47 Z" id="Path"></path>
                    <circle id="Oval-1" cx="28" cy="28" r="28"></circle>
                </g>
            </g>
        </g>
    </g>
</svg>