<svg xmlns="http://www.w3.org/2000/svg" width="475" height="474" xmlns:v="https://vecta.io/nano">
    <path d="M96 0h283c53.02 0 96 42.98 96 96v282c0 53.02-42.98 96-96 96H96c-53.02 0-96-42.98-96-96V96C0 42.98 42.98 0 96 0z"/>
    <g fill="#e02020">
        <g stroke="#e02020" stroke-width="15">
            <path d="M395.604 152.488c-2.221-2.232-5.732-2.516-8.284-.676a6.4 6.4 0 0 0-1.966 8.073 164.47 164.47 0 0 1 12.649 112.852A164.45 164.45 0 0 1 334.5 366.88c-31.672 22.846-70.44 33.673-109.371 30.548s-75.471-20.003-103.093-47.612a6.4 6.4 0 0 0-9.049 9.049c29.756 29.854 69.176 48.124 111.188 51.534 42.01 3.415 83.864-8.257 118.046-32.917s58.458-60.693 68.471-101.636a177.23 177.23 0 0 0-13.832-121.763 6.39 6.39 0 0 0-1.267-1.585l.011-.01z"/>
            <path d="M150.814 339.633a6.4 6.4 0 0 0-4.523-1.857l-39.003.047c-1.699-.002-3.327.673-4.529 1.875a6.4 6.4 0 0 0-1.875 4.528l.069 38.888a6.4 6.4 0 0 0 6.377 5.646c3.252-.008 5.977-2.459 6.337-5.69l.021-32.556h32.534c2.58-.006 4.902-1.565 5.89-3.947a6.4 6.4 0 0 0-1.365-6.957l.067.023zm-68.688-23.664c2.219 2.231 5.732 2.517 8.283.677a6.4 6.4 0 0 0 1.966-8.074c-17.483-34.923-21.963-74.926-12.65-112.852a164.45 164.45 0 0 1 63.503-94.141C174.901 78.733 213.669 67.904 252.6 71.03a164.45 164.45 0 0 1 103.093 47.613 6.4 6.4 0 0 0 9.049-9.049 177.24 177.24 0 0 0-111.188-51.535A177.23 177.23 0 0 0 67.036 192.612a177.24 177.24 0 0 0 13.833 121.764 6.39 6.39 0 0 0 1.267 1.585l-.01.008z"/>
            <path d="M326.914 128.825a6.4 6.4 0 0 0 4.523 1.856l39.004-.047c1.698.002 3.326-.673 4.528-1.874s1.874-2.828 1.874-4.529l-.068-38.888a6.4 6.4 0 0 0-6.377-5.646c-3.252.008-5.978 2.458-6.337 5.69l-.021 32.556h-32.533c-2.581.006-4.903 1.565-5.891 3.947s-.451 5.125 1.365 6.957l-.067-.022z"/>
        </g>
        <path d="M232.016 153.619a35.7 35.7 0 0 1 25.727 8.161 35.69 35.69 0 0 1 12.666 23.833c0 4.573 2.439 8.798 6.399 11.083a12.8 12.8 0 0 0 12.798 0c3.959-2.285 6.398-6.511 6.398-11.083-.608-13.9-6.059-27.152-15.406-37.459s-22.007-17.022-35.785-18.979v-13.949c0-4.573-2.439-8.798-6.398-11.083s-8.838-2.285-12.798 0-6.398 6.51-6.398 11.083v13.949c-13.778 1.957-26.435 8.672-35.786 18.979s-14.797 23.559-15.405 37.459c0 39.416 45.432 52.728 60.406 57.079 40.184 11.774 41.975 18.814 41.975 32.506a35.69 35.69 0 0 1-12.666 23.832c-7.178 5.981-16.414 8.914-25.727 8.162a35.71 35.71 0 0 1-25.727-8.162c-7.178-5.981-11.726-14.537-12.666-23.832 0-4.574-2.439-8.799-6.399-11.084s-8.838-2.285-12.798 0-6.398 6.51-6.398 11.084a59.65 59.65 0 0 0 15.405 37.459 59.64 59.64 0 0 0 35.786 18.979v13.948c0 4.574 2.439 8.799 6.398 11.084s8.838 2.285 12.798 0 6.398-6.511 6.398-11.084v-13.948a59.64 59.64 0 0 0 51.191-56.438c0-36.603-25.596-47.095-60.406-57.59-37.625-10.496-41.976-23.293-41.976-31.994a35.7 35.7 0 0 1 38.394-31.995z"/>
    </g>
</svg>